# xmcd
#
# Track frame offsets:
#	150
#	13530
#	26985
#	38582
#	53392
#	65717
#	79860
#	93930
#	107540
#	119440
#	134975
#	148000
#
# Disc length: 2178
#
# Revision: 5
# Processed by: cddbd v1.5.1PL0 Copyright (c) Steve Scherf et al.
# Submitted via: CDex 1.40Release
# Normalized: r4:DSETVAR1,TDELIM( - )
#
DISCID=a308800c
DTITLE=Various Artist - Back to the 70's
DYEAR=1900
DGENRE=Country
TTITLE0=Lynn Anderson - Top Of The World
TTITLE1=Johnny Paycheck - She's All I Got
TTITLE2=Sammi Smith - Help Me Make It Through The Night
TTITLE3=Don Gibson - Woman (Sensuous Woman)
TTITLE4=Jeanne Pruett - Satin Sheets
TTITLE5=Bob Luman - Lonely Women Make Good Lovers
TTITLE6=Barbara Fairchild - Teddy Bear Song
TTITLE7=Dicky Lee - 9,999,999 Tears
TTITLE8=Donna Fargo - Funny Face
TTITLE9=Cal Smith - Country Bumpkin
TTITLE10=Faron Young - It's Four In The Morning
TTITLE11=melba Montgomery - No Charge
EXTD=ID3G: 2
EXTT0=
EXTT1=
EXTT2=
EXTT3=
EXTT4=
EXTT5=
EXTT6=
EXTT7=
EXTT8=
EXTT9=
EXTT10=
EXTT11=
PLAYORDER=
